# xmcd
#
# Track frame offsets:
#	150
#	13327
#	25904
#	43799
#	56365
#	71559
#	84851
#	101239
#	109755
#	126891
#	137809
#
# Disc length: 2039 seconds
# Revision: 0
# Processed by: cddbd v1.5.2PL0 Copyright (c) Steve Scherf et al.
# Submitted via: dBpowerAMP V12.0
#
DISCID=9507f50b
DTITLE=Coby Carter - Legends
DYEAR=2014
DGENRE=Country
TTITLE0=Somewhere In Texas
TTITLE1=That's What I Like About A Country Song
TTITLE2=Lonesome Town
TTITLE3=Back In The Swing Of Things
TTITLE4=Dance Time In Texas
TTITLE5=Lost In The Feeling
TTITLE6=In The Mood
TTITLE7=West Texas Town
TTITLE8=True Love Ways
TTITLE9=Still Fiddlin' Around
TTITLE10=Dear Lord
EXTD=
EXTT0=
EXTT1=
EXTT2=
EXTT3=
EXTT4=
EXTT5=
EXTT6=
EXTT7=
EXTT8=
EXTT9=
EXTT10=
PLAYORDER=
